<svg xmlns="http://www.w3.org/2000/svg" xmlns:xlink="http://www.w3.org/1999/xlink" width="500" zoomAndPan="magnify"
    viewBox="0 0 375 374.999991" height="500" preserveAspectRatio="xMidYMid meet" version="1.0">
    <defs>
        <clipPath id="f79fb527ff">
            <path d="M 135 298 L 265 298 L 265 331.917969 L 135 331.917969 Z M 135 298 " clip-rule="nonzero" />
        </clipPath>
        <clipPath id="dc6e2cf8a7">
            <path d="M 44 185 L 331.917969 185 L 331.917969 246 L 44 246 Z M 44 185 " clip-rule="nonzero" />
        </clipPath>
        <clipPath id="a3137743b2">
            <path d="M 110 43.167969 L 239 43.167969 L 239 77 L 110 77 Z M 110 43.167969 " clip-rule="nonzero" />
        </clipPath>
        <clipPath id="f94dd798ea">
            <path d="M 43.167969 129 L 331.917969 129 L 331.917969 193 L 43.167969 193 Z M 43.167969 129 "
                clip-rule="nonzero" />
        </clipPath>
        <clipPath id="295da3833a">
            <path d="M 135 298 L 265 298 L 265 331.917969 L 135 331.917969 Z M 135 298 " clip-rule="nonzero" />
        </clipPath>
        <clipPath id="cdf53a1237">
            <path d="M 44 185 L 331.917969 185 L 331.917969 246 L 44 246 Z M 44 185 " clip-rule="nonzero" />
        </clipPath>
        <clipPath id="2283596526">
            <path d="M 110 43.167969 L 239 43.167969 L 239 77 L 110 77 Z M 110 43.167969 " clip-rule="nonzero" />
        </clipPath>
        <clipPath id="03d670f450">
            <path d="M 43.167969 129 L 331.917969 129 L 331.917969 193 L 43.167969 193 Z M 43.167969 129 "
                clip-rule="nonzero" />
        </clipPath>
    </defs>
    <g clip-path="url(#f79fb527ff)">
        <path fill="#3b82f6"
            d="M 264.941406 309.476562 C 242.558594 323.71875 215.996094 331.976562 187.503906 331.976562 C 169.253906 331.976562 151.792969 328.585938 135.71875 322.417969 C 137.457031 322.613281 139.253906 322.703125 141.101562 322.703125 C 149.027344 322.703125 158.085938 320.953125 169.601562 317.203125 C 173.460938 315.972656 177.226562 314.617188 180.402344 313.449219 C 182.917969 312.523438 185.457031 311.570312 187.980469 310.625 L 189.527344 310.042969 C 204.738281 304.332031 217.34375 299.871094 229.683594 298.695312 C 231.65625 298.511719 233.589844 298.421875 235.429688 298.421875 C 244.914062 298.421875 252.96875 300.847656 260.066406 305.835938 L 260.632812 306.207031 C 262.023438 307.398438 263.457031 308.492188 264.941406 309.476562 Z M 264.941406 309.476562 "
            fill-opacity="1" fill-rule="evenodd" />
    </g>
    <path fill="#3b82f6"
        d="M 315.625 254.234375 C 307.601562 269.628906 296.878906 283.394531 284.101562 294.914062 C 275.492188 294.367188 268.058594 291.65625 261.515625 286.742188 C 254.222656 280.558594 245.6875 277.550781 235.402344 277.550781 C 233.632812 277.550781 231.777344 277.640625 229.886719 277.828125 C 217.800781 278.976562 205.347656 283.378906 190.324219 289.027344 L 188.605469 289.667969 C 184.359375 291.269531 179.972656 292.914062 175.675781 294.414062 C 171.882812 295.757812 168.488281 296.855469 165.292969 297.792969 C 155.792969 300.574219 148.085938 301.882812 141.027344 301.882812 C 131.03125 301.882812 122.550781 299.191406 115.121094 293.648438 L 115.054688 293.589844 C 107.769531 287.410156 99.226562 284.402344 88.953125 284.402344 C 87.171875 284.402344 85.324219 284.492188 83.421875 284.671875 C 82.582031 284.757812 81.730469 284.851562 80.890625 284.957031 C 72.566406 275.859375 65.40625 265.695312 59.621094 254.691406 L 59.621094 254.683594 C 67.488281 252.109375 75.53125 250 83.222656 249.28125 C 85.210938 249.085938 87.15625 248.992188 89.015625 248.992188 C 98.472656 248.992188 106.519531 251.417969 113.609375 256.414062 L 114.179688 256.777344 C 121.667969 263.28125 130.492188 266.441406 141.109375 266.441406 C 146.523438 266.441406 152.445312 265.632812 159.210938 263.957031 C 162.433594 263.160156 165.746094 262.210938 169.347656 261.035156 C 175.363281 259.089844 181.554688 256.777344 187.535156 254.527344 L 189.53125 253.765625 C 202.140625 249.035156 216.429688 243.675781 229.6875 242.429688 C 231.664062 242.246094 233.609375 242.140625 235.472656 242.140625 C 244.941406 242.140625 252.984375 244.574219 260.0625 249.566406 L 260.675781 249.960938 C 268.164062 256.441406 276.964844 259.585938 287.574219 259.585938 C 292.988281 259.585938 298.898438 258.773438 305.675781 257.105469 C 308.804688 256.324219 312.15625 255.363281 315.625 254.234375 Z M 315.625 254.234375 "
        fill-opacity="1" fill-rule="evenodd" />
    <g clip-path="url(#dc6e2cf8a7)">
        <path fill="#3b82f6"
            d="M 331.824219 192.207031 C 331.40625 205.34375 329.238281 218.039062 325.546875 230.066406 C 321.855469 231.40625 318.160156 232.683594 314.519531 233.820312 C 310.878906 234.960938 307.589844 235.867188 304.46875 236.59375 C 298.1875 238.042969 292.628906 238.746094 287.476562 238.746094 C 277.417969 238.753906 268.898438 236.023438 261.441406 230.40625 L 261.371094 230.359375 C 254.109375 224.242188 245.613281 221.273438 235.40625 221.273438 C 233.628906 221.273438 231.78125 221.363281 229.894531 221.546875 C 216.902344 222.78125 202.78125 228.074219 190.328125 232.75 L 188.433594 233.453125 C 181.734375 235.96875 174.789062 238.570312 168.058594 240.671875 C 164.441406 241.800781 161.152344 242.710938 158.007812 243.4375 C 151.730469 244.890625 146.179688 245.605469 141.027344 245.605469 C 130.964844 245.605469 122.441406 242.875 115.0625 237.320312 C 107.769531 231.128906 99.226562 228.121094 88.953125 228.121094 C 87.171875 228.121094 85.324219 228.210938 83.421875 228.390625 C 73.09375 229.371094 62.039062 232.925781 51.683594 236.695312 C 47.914062 226.300781 45.316406 215.339844 44.039062 203.984375 C 45.4375 203.457031 46.832031 202.9375 48.21875 202.417969 C 61.566406 197.496094 72.617188 194.003906 83.21875 192.996094 C 84.820312 192.835938 86.457031 192.753906 88.09375 192.726562 L 88.972656 192.714844 C 98.460938 192.714844 106.519531 195.140625 113.601562 200.132812 L 114.152344 200.484375 C 114.6875 200.945312 115.261719 201.410156 115.890625 201.910156 L 116.101562 202.078125 C 116.457031 202.351562 116.808594 202.601562 117.140625 202.851562 L 117.527344 203.125 C 117.859375 203.355469 118.195312 203.585938 118.527344 203.800781 L 118.960938 204.078125 C 119.292969 204.289062 119.628906 204.496094 119.960938 204.699219 L 120.378906 204.9375 C 120.726562 205.132812 121.074219 205.335938 121.5 205.566406 C 122.296875 205.984375 123.101562 206.375 123.917969 206.746094 L 124.242188 206.890625 C 124.507812 207.003906 124.777344 207.113281 125.054688 207.214844 L 125.769531 207.5 C 126.074219 207.617188 126.382812 207.730469 126.683594 207.835938 L 127.3125 208.058594 C 127.605469 208.15625 127.914062 208.253906 128.21875 208.34375 L 128.652344 208.472656 C 128.652344 208.472656 129.464844 208.703125 129.765625 208.785156 C 129.765625 208.785156 131.109375 209.109375 131.34375 209.15625 L 131.925781 209.277344 C 132.53125 209.398438 133.140625 209.511719 133.757812 209.609375 L 134.386719 209.699219 C 134.621094 209.738281 136.015625 209.902344 136.015625 209.902344 L 136.910156 209.984375 L 137.640625 210.039062 L 138.546875 210.085938 C 138.546875 210.085938 139.878906 210.144531 140.183594 210.144531 L 141.53125 210.152344 L 142.605469 210.136719 C 143.148438 210.117188 143.707031 210.097656 144.253906 210.0625 L 145.066406 210.015625 L 146.773438 209.871094 L 148.503906 209.679688 L 149.308594 209.578125 L 151.015625 209.339844 L 152.710938 209.0625 C 153.902344 208.851562 155.109375 208.609375 156.265625 208.359375 L 156.410156 208.320312 C 157.003906 208.191406 157.59375 208.0625 158.25 207.902344 C 159.113281 207.699219 159.980469 207.484375 160.859375 207.257812 L 162.269531 206.871094 C 165.378906 206.015625 168.683594 205.007812 172.078125 203.855469 C 172.609375 203.667969 175.375 202.707031 175.375 202.707031 C 179.484375 201.265625 183.679688 199.6875 187.730469 198.171875 L 189.65625 197.445312 C 191.332031 196.816406 193.003906 196.1875 194.671875 195.578125 C 208.019531 190.644531 219.082031 187.15625 229.675781 186.148438 C 231.273438 186 232.910156 185.90625 234.546875 185.886719 L 235.425781 185.878906 C 244.921875 185.878906 252.976562 188.304688 260.0625 193.292969 L 260.644531 193.664062 C 261.164062 194.117188 261.71875 194.570312 262.320312 195.035156 L 262.5625 195.226562 C 262.90625 195.492188 263.257812 195.75 263.609375 195.996094 L 263.988281 196.269531 C 264.324219 196.503906 264.65625 196.722656 264.988281 196.949219 L 265.414062 197.222656 C 265.746094 197.433594 266.082031 197.640625 266.414062 197.835938 L 266.832031 198.078125 C 267.1875 198.277344 267.527344 198.480469 267.953125 198.707031 C 268.75 199.132812 269.554688 199.519531 270.378906 199.878906 L 270.691406 200.027344 C 271.015625 200.164062 271.332031 200.296875 271.652344 200.414062 L 272.226562 200.648438 C 272.53125 200.769531 272.828125 200.871094 273.144531 200.980469 L 273.773438 201.203125 C 274.070312 201.292969 274.375 201.398438 274.667969 201.488281 L 275.324219 201.671875 C 275.621094 201.765625 275.917969 201.851562 276.21875 201.921875 L 276.886719 202.089844 C 276.886719 202.089844 277.554688 202.25 277.785156 202.300781 L 278.386719 202.421875 C 278.992188 202.542969 279.597656 202.65625 280.210938 202.746094 L 280.847656 202.851562 L 282.46875 203.042969 C 282.765625 203.082031 283.070312 203.101562 283.371094 203.128906 L 284.089844 203.1875 C 284.386719 203.203125 284.695312 203.21875 284.988281 203.242188 L 285.738281 203.269531 L 286.632812 203.292969 L 287.929688 203.300781 L 289.050781 203.277344 C 289.605469 203.269531 290.148438 203.242188 290.703125 203.210938 L 291.511719 203.164062 L 293.214844 203.019531 L 294.957031 202.832031 L 295.753906 202.734375 L 297.460938 202.492188 C 297.855469 202.425781 299.152344 202.207031 299.152344 202.207031 C 300.355469 202.003906 301.5625 201.765625 302.761719 201.492188 L 302.855469 201.476562 C 303.457031 201.347656 304.046875 201.207031 304.59375 201.078125 L 304.695312 201.0625 C 305.5625 200.851562 306.433594 200.636719 307.304688 200.40625 L 308.714844 200.027344 C 311.824219 199.175781 315.128906 198.15625 318.523438 197 C 319.054688 196.824219 321.828125 195.863281 321.828125 195.863281 C 325.148438 194.691406 328.519531 193.441406 331.824219 192.207031 Z M 331.824219 192.207031 "
            fill-opacity="1" fill-rule="evenodd" />
    </g>
    <g clip-path="url(#a3137743b2)">
        <path fill="#3b82f6"
            d="M 238.875 52.59375 C 237.746094 52.507812 236.589844 52.472656 235.410156 52.472656 C 233.644531 52.472656 231.785156 52.5625 229.886719 52.746094 C 224.199219 53.28125 217.839844 54.632812 210.441406 56.890625 C 203.90625 58.878906 197.195312 61.359375 190.320312 63.941406 L 187.625 64.957031 C 184.15625 66.253906 180.691406 67.550781 177.242188 68.78125 C 176.398438 69.078125 175.535156 69.382812 174.6875 69.675781 C 170.300781 71.199219 166.421875 72.425781 162.828125 73.414062 C 154.546875 75.695312 147.410156 76.792969 141.03125 76.792969 C 131.027344 76.792969 122.546875 74.101562 115.117188 68.554688 L 115.058594 68.5 C 113.664062 67.316406 112.207031 66.242188 110.707031 65.277344 C 132.953125 51.28125 159.285156 43.183594 187.503906 43.183594 C 205.597656 43.1875 222.910156 46.519531 238.875 52.59375 Z M 238.875 52.59375 "
            fill-opacity="1" fill-rule="evenodd" />
    </g>
    <path fill="#3b82f6"
        d="M 315.625 120.925781 C 315.253906 121.046875 314.890625 121.167969 314.523438 121.28125 C 310.882812 122.417969 307.601562 123.328125 304.472656 124.046875 C 298.191406 125.5 292.636719 126.210938 287.480469 126.210938 C 277.421875 126.210938 268.90625 123.476562 261.445312 117.859375 L 261.382812 117.8125 C 254.113281 111.703125 245.617188 108.734375 235.410156 108.734375 C 233.640625 108.734375 231.785156 108.824219 229.898438 109.003906 C 216.921875 110.234375 202.792969 115.539062 190.335938 120.203125 L 188.4375 120.90625 C 181.738281 123.421875 174.792969 126.03125 168.066406 128.125 C 164.429688 129.265625 161.140625 130.171875 158.011719 130.898438 C 151.734375 132.355469 146.183594 133.058594 141.03125 133.058594 C 130.96875 133.058594 122.445312 130.332031 115.066406 124.777344 C 107.773438 118.582031 99.230469 115.578125 88.957031 115.578125 C 87.175781 115.578125 85.328125 115.667969 83.429688 115.847656 C 75.511719 116.597656 67.179688 118.863281 59.054688 121.578125 C 67.121094 105.898438 77.976562 91.894531 90.972656 80.207031 C 99.605469 80.519531 107.03125 82.953125 113.613281 87.589844 L 114.183594 87.960938 C 121.671875 94.457031 130.496094 97.625 141.113281 97.625 C 146.941406 97.625 153.410156 96.671875 160.871094 94.71875 C 164.332031 93.824219 167.996094 92.699219 172.089844 91.3125 C 177.058594 89.636719 182.15625 87.730469 187.082031 85.878906 L 189.53125 84.960938 C 204.742188 79.25 217.355469 74.78125 229.6875 73.613281 C 231.65625 73.417969 233.597656 73.324219 235.449219 73.324219 C 244.929688 73.324219 252.980469 75.75 260.058594 80.75 L 260.671875 81.136719 C 268.152344 87.617188 276.960938 90.761719 287.566406 90.761719 C 289.71875 90.761719 291.945312 90.632812 294.28125 90.371094 C 302.640625 99.558594 309.835938 109.820312 315.625 120.925781 Z M 315.625 120.925781 "
        fill-opacity="1" fill-rule="evenodd" />
    <g clip-path="url(#f94dd798ea)">
        <path fill="#3b82f6"
            d="M 331.035156 171.78125 C 330.453125 172.007812 329.867188 172.21875 329.285156 172.441406 L 327.007812 173.265625 C 325.515625 173.8125 324.023438 174.355469 322.542969 174.875 L 321.71875 175.160156 C 320.292969 175.660156 318.867188 176.152344 317.441406 176.625 L 316.441406 176.941406 C 314.878906 177.449219 313.300781 177.949219 311.742188 178.398438 L 309.871094 178.9375 C 307.613281 179.566406 305.398438 180.125 303.34375 180.574219 C 303.34375 180.574219 302.195312 180.824219 301.707031 180.929688 C 301.707031 180.929688 300.558594 181.152344 300.097656 181.242188 C 300.097656 181.242188 298.921875 181.445312 298.460938 181.519531 L 296.65625 181.796875 C 296.65625 181.796875 295.542969 181.953125 295.042969 182.011719 L 295.164062 185.378906 L 294.914062 182.027344 C 294.371094 182.09375 293.832031 182.148438 293.277344 182.203125 C 293.277344 182.203125 292.148438 182.292969 291.703125 182.332031 L 290.117188 182.425781 L 288.554688 182.472656 L 287.136719 182.480469 L 285.4375 182.441406 L 283.898438 182.359375 L 282.363281 182.230469 L 281.695312 182.15625 L 280.847656 182.054688 L 280.015625 181.933594 L 279.339844 181.820312 L 278.507812 181.675781 L 277.84375 181.546875 C 277.570312 181.488281 276.355469 181.210938 276.355469 181.210938 L 275.53125 181.007812 C 275.53125 181.007812 274.335938 180.675781 274.066406 180.589844 L 273.398438 180.378906 L 272.601562 180.121094 C 272.601562 180.121094 271.425781 179.691406 271.15625 179.582031 C 271.15625 179.582031 269.992188 179.105469 269.742188 179 L 268.3125 178.347656 C 268.089844 178.238281 266.90625 177.632812 266.90625 177.632812 L 265.527344 176.859375 L 264.136719 176.019531 C 263.925781 175.878906 262.777344 175.121094 262.777344 175.121094 C 262.335938 174.808594 261.882812 174.484375 261.511719 174.203125 C 254.226562 168.011719 245.695312 165.003906 235.421875 165.003906 C 233.640625 165.003906 231.78125 165.097656 229.882812 165.28125 C 224.203125 165.820312 217.84375 167.167969 210.429688 169.425781 L 209.667969 169.667969 C 208.46875 170.039062 207.253906 170.425781 206.035156 170.835938 L 204.679688 171.289062 C 203.542969 171.667969 202.398438 172.066406 201.261719 172.472656 L 198.933594 173.292969 L 197.109375 173.949219 C 194.855469 174.78125 192.597656 175.617188 190.316406 176.464844 L 188.78125 177.046875 C 186.792969 177.796875 184.8125 178.539062 182.820312 179.277344 L 180.53125 180.109375 C 179.050781 180.652344 177.5625 181.191406 176.089844 181.714844 L 175.269531 182.003906 C 173.832031 182.511719 172.40625 182.988281 170.988281 183.460938 L 169.992188 183.789062 C 168.417969 184.296875 166.851562 184.789062 165.289062 185.242188 C 165.289062 185.242188 163.898438 185.652344 163.421875 185.78125 C 161.152344 186.417969 158.941406 186.972656 156.859375 187.425781 L 157.082031 190.785156 L 156.757812 187.457031 C 156.261719 187.566406 155.75 187.667969 155.25 187.769531 C 155.25 187.769531 154.109375 188.003906 153.640625 188.085938 C 153.640625 188.085938 152.464844 188.296875 152.003906 188.371094 L 150.085938 188.667969 C 149.585938 188.730469 149.085938 188.796875 148.585938 188.859375 L 148.707031 192.230469 L 148.457031 188.871094 C 147.917969 188.933594 147.375 189 146.828125 189.046875 C 146.828125 189.046875 145.699219 189.148438 145.257812 189.175781 L 143.664062 189.265625 L 142.105469 189.320312 L 140.761719 189.332031 L 138.984375 189.304688 L 137.445312 189.21875 C 137.160156 189.199219 135.910156 189.082031 135.910156 189.082031 C 135.628906 189.050781 135.347656 189.023438 135.070312 188.996094 L 133.550781 188.78125 L 132.875 188.683594 C 132.601562 188.636719 132.328125 188.582031 132.042969 188.535156 L 131.375 188.402344 L 130.550781 188.222656 L 129.882812 188.074219 C 129.613281 188 129.347656 187.933594 129.070312 187.859375 L 128.410156 187.683594 C 128.144531 187.597656 127.867188 187.523438 127.605469 187.453125 L 126.144531 186.96875 C 126.144531 186.96875 124.96875 186.542969 124.703125 186.445312 L 123.265625 185.847656 C 123.0625 185.757812 122.097656 185.3125 121.859375 185.203125 L 120.449219 184.488281 L 119.0625 183.710938 L 117.683594 182.878906 C 117.460938 182.730469 117.230469 182.582031 117.007812 182.429688 L 116.320312 181.976562 C 115.914062 181.6875 115.507812 181.402344 115.109375 181.105469 L 115.054688 181.050781 C 107.769531 174.867188 99.226562 171.855469 88.953125 171.855469 C 87.175781 171.855469 85.316406 171.949219 83.414062 172.128906 C 77.730469 172.664062 71.375 174.023438 63.96875 176.273438 L 63.210938 176.511719 C 62 176.890625 60.785156 177.28125 59.574219 177.679688 L 58.210938 178.132812 C 57.074219 178.519531 55.9375 178.910156 54.785156 179.316406 L 52.4375 180.15625 L 50.648438 180.804688 C 48.394531 181.628906 46.125 182.472656 43.855469 183.320312 L 43.167969 183.582031 C 43.519531 170.46875 45.625 157.785156 49.257812 145.773438 L 49.257812 145.765625 C 60.246094 141.726562 72.101562 137.777344 83.21875 136.730469 C 85.207031 136.535156 87.148438 136.441406 89.011719 136.441406 C 98.46875 136.441406 106.515625 138.867188 113.601562 143.863281 L 114.175781 144.234375 C 121.664062 150.730469 130.488281 153.890625 141.101562 153.890625 C 146.519531 153.890625 152.441406 153.085938 159.207031 151.410156 C 162.429688 150.613281 165.742188 149.660156 169.34375 148.492188 C 175.332031 146.558594 181.496094 144.242188 187.449219 142.011719 L 189.527344 141.222656 C 202.132812 136.492188 216.425781 131.132812 229.683594 129.875 C 231.660156 129.691406 233.605469 129.601562 235.46875 129.601562 C 244.9375 129.601562 252.980469 132.027344 260.058594 137.023438 L 260.671875 137.402344 C 268.152344 143.890625 276.960938 147.035156 287.566406 147.035156 C 292.976562 147.035156 298.894531 146.222656 305.671875 144.554688 C 308.871094 143.757812 312.199219 142.804688 315.796875 141.628906 C 318.351562 140.804688 320.9375 139.917969 323.515625 138.992188 C 327.242188 149.417969 329.808594 160.394531 331.035156 171.78125 Z M 331.035156 171.78125 "
            fill-opacity="1" fill-rule="evenodd" />
    </g>
    <g clip-path="url(#295da3833a)">
        <path fill="#3b82f6"
            d="M 264.941406 309.476562 C 242.558594 323.71875 215.996094 331.976562 187.503906 331.976562 C 169.253906 331.976562 151.792969 328.585938 135.71875 322.417969 C 137.457031 322.613281 139.253906 322.703125 141.101562 322.703125 C 149.027344 322.703125 158.085938 320.953125 169.601562 317.203125 C 173.460938 315.972656 177.226562 314.617188 180.402344 313.449219 C 182.917969 312.523438 185.457031 311.570312 187.980469 310.625 L 189.527344 310.042969 C 204.738281 304.332031 217.34375 299.871094 229.683594 298.695312 C 231.65625 298.511719 233.589844 298.421875 235.429688 298.421875 C 244.914062 298.421875 252.96875 300.847656 260.066406 305.835938 L 260.632812 306.207031 C 262.023438 307.398438 263.457031 308.492188 264.941406 309.476562 Z M 264.941406 309.476562 "
            fill-opacity="1" fill-rule="evenodd" />
    </g>
    <path fill="#3b82f6"
        d="M 315.625 254.234375 C 307.601562 269.628906 296.878906 283.394531 284.101562 294.914062 C 275.492188 294.367188 268.058594 291.65625 261.515625 286.742188 C 254.222656 280.558594 245.6875 277.550781 235.402344 277.550781 C 233.632812 277.550781 231.777344 277.640625 229.886719 277.828125 C 217.800781 278.976562 205.347656 283.378906 190.324219 289.027344 L 188.605469 289.667969 C 184.359375 291.269531 179.972656 292.914062 175.675781 294.414062 C 171.882812 295.757812 168.488281 296.855469 165.292969 297.792969 C 155.792969 300.574219 148.085938 301.882812 141.027344 301.882812 C 131.03125 301.882812 122.550781 299.191406 115.121094 293.648438 L 115.054688 293.589844 C 107.769531 287.410156 99.226562 284.402344 88.953125 284.402344 C 87.171875 284.402344 85.324219 284.492188 83.421875 284.671875 C 82.582031 284.757812 81.730469 284.851562 80.890625 284.957031 C 72.566406 275.859375 65.40625 265.695312 59.621094 254.691406 L 59.621094 254.683594 C 67.488281 252.109375 75.53125 250 83.222656 249.28125 C 85.210938 249.085938 87.15625 248.992188 89.015625 248.992188 C 98.472656 248.992188 106.519531 251.417969 113.609375 256.414062 L 114.179688 256.777344 C 121.667969 263.28125 130.492188 266.441406 141.109375 266.441406 C 146.523438 266.441406 152.445312 265.632812 159.210938 263.957031 C 162.433594 263.160156 165.746094 262.210938 169.347656 261.035156 C 175.363281 259.089844 181.554688 256.777344 187.535156 254.527344 L 189.53125 253.765625 C 202.140625 249.035156 216.429688 243.675781 229.6875 242.429688 C 231.664062 242.246094 233.609375 242.140625 235.472656 242.140625 C 244.941406 242.140625 252.984375 244.574219 260.0625 249.566406 L 260.675781 249.960938 C 268.164062 256.441406 276.964844 259.585938 287.574219 259.585938 C 292.988281 259.585938 298.898438 258.773438 305.675781 257.105469 C 308.804688 256.324219 312.15625 255.363281 315.625 254.234375 Z M 315.625 254.234375 "
        fill-opacity="1" fill-rule="evenodd" />
    <g clip-path="url(#cdf53a1237)">
        <path fill="#3b82f6"
            d="M 331.824219 192.207031 C 331.40625 205.34375 329.238281 218.039062 325.546875 230.066406 C 321.855469 231.40625 318.160156 232.683594 314.519531 233.820312 C 310.878906 234.960938 307.589844 235.867188 304.46875 236.59375 C 298.1875 238.042969 292.628906 238.746094 287.476562 238.746094 C 277.417969 238.753906 268.898438 236.023438 261.441406 230.40625 L 261.371094 230.359375 C 254.109375 224.242188 245.613281 221.273438 235.40625 221.273438 C 233.628906 221.273438 231.78125 221.363281 229.894531 221.546875 C 216.902344 222.78125 202.78125 228.074219 190.328125 232.75 L 188.433594 233.453125 C 181.734375 235.96875 174.789062 238.570312 168.058594 240.671875 C 164.441406 241.800781 161.152344 242.710938 158.007812 243.4375 C 151.730469 244.890625 146.179688 245.605469 141.027344 245.605469 C 130.964844 245.605469 122.441406 242.875 115.0625 237.320312 C 107.769531 231.128906 99.226562 228.121094 88.953125 228.121094 C 87.171875 228.121094 85.324219 228.210938 83.421875 228.390625 C 73.09375 229.371094 62.039062 232.925781 51.683594 236.695312 C 47.914062 226.300781 45.316406 215.339844 44.039062 203.984375 C 45.4375 203.457031 46.832031 202.9375 48.21875 202.417969 C 61.566406 197.496094 72.617188 194.003906 83.21875 192.996094 C 84.820312 192.835938 86.457031 192.753906 88.09375 192.726562 L 88.972656 192.714844 C 98.460938 192.714844 106.519531 195.140625 113.601562 200.132812 L 114.152344 200.484375 C 114.6875 200.945312 115.261719 201.410156 115.890625 201.910156 L 116.101562 202.078125 C 116.457031 202.351562 116.808594 202.601562 117.140625 202.851562 L 117.527344 203.125 C 117.859375 203.355469 118.195312 203.585938 118.527344 203.800781 L 118.960938 204.078125 C 119.292969 204.289062 119.628906 204.496094 119.960938 204.699219 L 120.378906 204.9375 C 120.726562 205.132812 121.074219 205.335938 121.5 205.566406 C 122.296875 205.984375 123.101562 206.375 123.917969 206.746094 L 124.242188 206.890625 C 124.507812 207.003906 124.777344 207.113281 125.054688 207.214844 L 125.769531 207.5 C 126.074219 207.617188 126.382812 207.730469 126.683594 207.835938 L 127.3125 208.058594 C 127.605469 208.15625 127.914062 208.253906 128.21875 208.34375 L 128.652344 208.472656 C 128.652344 208.472656 129.464844 208.703125 129.765625 208.785156 C 129.765625 208.785156 131.109375 209.109375 131.34375 209.15625 L 131.925781 209.277344 C 132.53125 209.398438 133.140625 209.511719 133.757812 209.609375 L 134.386719 209.699219 C 134.621094 209.738281 136.015625 209.902344 136.015625 209.902344 L 136.910156 209.984375 L 137.640625 210.039062 L 138.546875 210.085938 C 138.546875 210.085938 139.878906 210.144531 140.183594 210.144531 L 141.53125 210.152344 L 142.605469 210.136719 C 143.148438 210.117188 143.707031 210.097656 144.253906 210.0625 L 145.066406 210.015625 L 146.773438 209.871094 L 148.503906 209.679688 L 149.308594 209.578125 L 151.015625 209.339844 L 152.710938 209.0625 C 153.902344 208.851562 155.109375 208.609375 156.265625 208.359375 L 156.410156 208.320312 C 157.003906 208.191406 157.59375 208.0625 158.25 207.902344 C 159.113281 207.699219 159.980469 207.484375 160.859375 207.257812 L 162.269531 206.871094 C 165.378906 206.015625 168.683594 205.007812 172.078125 203.855469 C 172.609375 203.667969 175.375 202.707031 175.375 202.707031 C 179.484375 201.265625 183.679688 199.6875 187.730469 198.171875 L 189.65625 197.445312 C 191.332031 196.816406 193.003906 196.1875 194.671875 195.578125 C 208.019531 190.644531 219.082031 187.15625 229.675781 186.148438 C 231.273438 186 232.910156 185.90625 234.546875 185.886719 L 235.425781 185.878906 C 244.921875 185.878906 252.976562 188.304688 260.0625 193.292969 L 260.644531 193.664062 C 261.164062 194.117188 261.71875 194.570312 262.320312 195.035156 L 262.5625 195.226562 C 262.90625 195.492188 263.257812 195.75 263.609375 195.996094 L 263.988281 196.269531 C 264.324219 196.503906 264.65625 196.722656 264.988281 196.949219 L 265.414062 197.222656 C 265.746094 197.433594 266.082031 197.640625 266.414062 197.835938 L 266.832031 198.078125 C 267.1875 198.277344 267.527344 198.480469 267.953125 198.707031 C 268.75 199.132812 269.554688 199.519531 270.378906 199.878906 L 270.691406 200.027344 C 271.015625 200.164062 271.332031 200.296875 271.652344 200.414062 L 272.226562 200.648438 C 272.53125 200.769531 272.828125 200.871094 273.144531 200.980469 L 273.773438 201.203125 C 274.070312 201.292969 274.375 201.398438 274.667969 201.488281 L 275.324219 201.671875 C 275.621094 201.765625 275.917969 201.851562 276.21875 201.921875 L 276.886719 202.089844 C 276.886719 202.089844 277.554688 202.25 277.785156 202.300781 L 278.386719 202.421875 C 278.992188 202.542969 279.597656 202.65625 280.210938 202.746094 L 280.847656 202.851562 L 282.46875 203.042969 C 282.765625 203.082031 283.070312 203.101562 283.371094 203.128906 L 284.089844 203.1875 C 284.386719 203.203125 284.695312 203.21875 284.988281 203.242188 L 285.738281 203.269531 L 286.632812 203.292969 L 287.929688 203.300781 L 289.050781 203.277344 C 289.605469 203.269531 290.148438 203.242188 290.703125 203.210938 L 291.511719 203.164062 L 293.214844 203.019531 L 294.957031 202.832031 L 295.753906 202.734375 L 297.460938 202.492188 C 297.855469 202.425781 299.152344 202.207031 299.152344 202.207031 C 300.355469 202.003906 301.5625 201.765625 302.761719 201.492188 L 302.855469 201.476562 C 303.457031 201.347656 304.046875 201.207031 304.59375 201.078125 L 304.695312 201.0625 C 305.5625 200.851562 306.433594 200.636719 307.304688 200.40625 L 308.714844 200.027344 C 311.824219 199.175781 315.128906 198.15625 318.523438 197 C 319.054688 196.824219 321.828125 195.863281 321.828125 195.863281 C 325.148438 194.691406 328.519531 193.441406 331.824219 192.207031 Z M 331.824219 192.207031 "
            fill-opacity="1" fill-rule="evenodd" />
    </g>
    <g clip-path="url(#2283596526)">
        <path fill="#3b82f6"
            d="M 238.875 52.59375 C 237.746094 52.507812 236.589844 52.472656 235.410156 52.472656 C 233.644531 52.472656 231.785156 52.5625 229.886719 52.746094 C 224.199219 53.28125 217.839844 54.632812 210.441406 56.890625 C 203.90625 58.878906 197.195312 61.359375 190.320312 63.941406 L 187.625 64.957031 C 184.15625 66.253906 180.691406 67.550781 177.242188 68.78125 C 176.398438 69.078125 175.535156 69.382812 174.6875 69.675781 C 170.300781 71.199219 166.421875 72.425781 162.828125 73.414062 C 154.546875 75.695312 147.410156 76.792969 141.03125 76.792969 C 131.027344 76.792969 122.546875 74.101562 115.117188 68.554688 L 115.058594 68.5 C 113.664062 67.316406 112.207031 66.242188 110.707031 65.277344 C 132.953125 51.28125 159.285156 43.183594 187.503906 43.183594 C 205.597656 43.1875 222.910156 46.519531 238.875 52.59375 Z M 238.875 52.59375 "
            fill-opacity="1" fill-rule="evenodd" />
    </g>
    <path fill="#3b82f6"
        d="M 315.625 120.925781 C 315.253906 121.046875 314.890625 121.167969 314.523438 121.28125 C 310.882812 122.417969 307.601562 123.328125 304.472656 124.046875 C 298.191406 125.5 292.636719 126.210938 287.480469 126.210938 C 277.421875 126.210938 268.90625 123.476562 261.445312 117.859375 L 261.382812 117.8125 C 254.113281 111.703125 245.617188 108.734375 235.410156 108.734375 C 233.640625 108.734375 231.785156 108.824219 229.898438 109.003906 C 216.921875 110.234375 202.792969 115.539062 190.335938 120.203125 L 188.4375 120.90625 C 181.738281 123.421875 174.792969 126.03125 168.066406 128.125 C 164.429688 129.265625 161.140625 130.171875 158.011719 130.898438 C 151.734375 132.355469 146.183594 133.058594 141.03125 133.058594 C 130.96875 133.058594 122.445312 130.332031 115.066406 124.777344 C 107.773438 118.582031 99.230469 115.578125 88.957031 115.578125 C 87.175781 115.578125 85.328125 115.667969 83.429688 115.847656 C 75.511719 116.597656 67.179688 118.863281 59.054688 121.578125 C 67.121094 105.898438 77.976562 91.894531 90.972656 80.207031 C 99.605469 80.519531 107.03125 82.953125 113.613281 87.589844 L 114.183594 87.960938 C 121.671875 94.457031 130.496094 97.625 141.113281 97.625 C 146.941406 97.625 153.410156 96.671875 160.871094 94.71875 C 164.332031 93.824219 167.996094 92.699219 172.089844 91.3125 C 177.058594 89.636719 182.15625 87.730469 187.082031 85.878906 L 189.53125 84.960938 C 204.742188 79.25 217.355469 74.78125 229.6875 73.613281 C 231.65625 73.417969 233.597656 73.324219 235.449219 73.324219 C 244.929688 73.324219 252.980469 75.75 260.058594 80.75 L 260.671875 81.136719 C 268.152344 87.617188 276.960938 90.761719 287.566406 90.761719 C 289.71875 90.761719 291.945312 90.632812 294.28125 90.371094 C 302.640625 99.558594 309.835938 109.820312 315.625 120.925781 Z M 315.625 120.925781 "
        fill-opacity="1" fill-rule="evenodd" />
    <g clip-path="url(#03d670f450)">
        <path fill="#3b82f6"
            d="M 331.035156 171.78125 C 330.453125 172.007812 329.867188 172.21875 329.285156 172.441406 L 327.007812 173.265625 C 325.515625 173.8125 324.023438 174.355469 322.542969 174.875 L 321.71875 175.160156 C 320.292969 175.660156 318.867188 176.152344 317.441406 176.625 L 316.441406 176.941406 C 314.878906 177.449219 313.300781 177.949219 311.742188 178.398438 L 309.871094 178.9375 C 307.613281 179.566406 305.398438 180.125 303.34375 180.574219 C 303.34375 180.574219 302.195312 180.824219 301.707031 180.929688 C 301.707031 180.929688 300.558594 181.152344 300.097656 181.242188 C 300.097656 181.242188 298.921875 181.445312 298.460938 181.519531 L 296.65625 181.796875 C 296.65625 181.796875 295.542969 181.953125 295.042969 182.011719 L 295.164062 185.378906 L 294.914062 182.027344 C 294.371094 182.09375 293.832031 182.148438 293.277344 182.203125 C 293.277344 182.203125 292.148438 182.292969 291.703125 182.332031 L 290.117188 182.425781 L 288.554688 182.472656 L 287.136719 182.480469 L 285.4375 182.441406 L 283.898438 182.359375 L 282.363281 182.230469 L 281.695312 182.15625 L 280.847656 182.054688 L 280.015625 181.933594 L 279.339844 181.820312 L 278.507812 181.675781 L 277.84375 181.546875 C 277.570312 181.488281 276.355469 181.210938 276.355469 181.210938 L 275.53125 181.007812 C 275.53125 181.007812 274.335938 180.675781 274.066406 180.589844 L 273.398438 180.378906 L 272.601562 180.121094 C 272.601562 180.121094 271.425781 179.691406 271.15625 179.582031 C 271.15625 179.582031 269.992188 179.105469 269.742188 179 L 268.3125 178.347656 C 268.089844 178.238281 266.90625 177.632812 266.90625 177.632812 L 265.527344 176.859375 L 264.136719 176.019531 C 263.925781 175.878906 262.777344 175.121094 262.777344 175.121094 C 262.335938 174.808594 261.882812 174.484375 261.511719 174.203125 C 254.226562 168.011719 245.695312 165.003906 235.421875 165.003906 C 233.640625 165.003906 231.78125 165.097656 229.882812 165.28125 C 224.203125 165.820312 217.84375 167.167969 210.429688 169.425781 L 209.667969 169.667969 C 208.46875 170.039062 207.253906 170.425781 206.035156 170.835938 L 204.679688 171.289062 C 203.542969 171.667969 202.398438 172.066406 201.261719 172.472656 L 198.933594 173.292969 L 197.109375 173.949219 C 194.855469 174.78125 192.597656 175.617188 190.316406 176.464844 L 188.78125 177.046875 C 186.792969 177.796875 184.8125 178.539062 182.820312 179.277344 L 180.53125 180.109375 C 179.050781 180.652344 177.5625 181.191406 176.089844 181.714844 L 175.269531 182.003906 C 173.832031 182.511719 172.40625 182.988281 170.988281 183.460938 L 169.992188 183.789062 C 168.417969 184.296875 166.851562 184.789062 165.289062 185.242188 C 165.289062 185.242188 163.898438 185.652344 163.421875 185.78125 C 161.152344 186.417969 158.941406 186.972656 156.859375 187.425781 L 157.082031 190.785156 L 156.757812 187.457031 C 156.261719 187.566406 155.75 187.667969 155.25 187.769531 C 155.25 187.769531 154.109375 188.003906 153.640625 188.085938 C 153.640625 188.085938 152.464844 188.296875 152.003906 188.371094 L 150.085938 188.667969 C 149.585938 188.730469 149.085938 188.796875 148.585938 188.859375 L 148.707031 192.230469 L 148.457031 188.871094 C 147.917969 188.933594 147.375 189 146.828125 189.046875 C 146.828125 189.046875 145.699219 189.148438 145.257812 189.175781 L 143.664062 189.265625 L 142.105469 189.320312 L 140.761719 189.332031 L 138.984375 189.304688 L 137.445312 189.21875 C 137.160156 189.199219 135.910156 189.082031 135.910156 189.082031 C 135.628906 189.050781 135.347656 189.023438 135.070312 188.996094 L 133.550781 188.78125 L 132.875 188.683594 C 132.601562 188.636719 132.328125 188.582031 132.042969 188.535156 L 131.375 188.402344 L 130.550781 188.222656 L 129.882812 188.074219 C 129.613281 188 129.347656 187.933594 129.070312 187.859375 L 128.410156 187.683594 C 128.144531 187.597656 127.867188 187.523438 127.605469 187.453125 L 126.144531 186.96875 C 126.144531 186.96875 124.96875 186.542969 124.703125 186.445312 L 123.265625 185.847656 C 123.0625 185.757812 122.097656 185.3125 121.859375 185.203125 L 120.449219 184.488281 L 119.0625 183.710938 L 117.683594 182.878906 C 117.460938 182.730469 117.230469 182.582031 117.007812 182.429688 L 116.320312 181.976562 C 115.914062 181.6875 115.507812 181.402344 115.109375 181.105469 L 115.054688 181.050781 C 107.769531 174.867188 99.226562 171.855469 88.953125 171.855469 C 87.175781 171.855469 85.316406 171.949219 83.414062 172.128906 C 77.730469 172.664062 71.375 174.023438 63.96875 176.273438 L 63.210938 176.511719 C 62 176.890625 60.785156 177.28125 59.574219 177.679688 L 58.210938 178.132812 C 57.074219 178.519531 55.9375 178.910156 54.785156 179.316406 L 52.4375 180.15625 L 50.648438 180.804688 C 48.394531 181.628906 46.125 182.472656 43.855469 183.320312 L 43.167969 183.582031 C 43.519531 170.46875 45.625 157.785156 49.257812 145.773438 L 49.257812 145.765625 C 60.246094 141.726562 72.101562 137.777344 83.21875 136.730469 C 85.207031 136.535156 87.148438 136.441406 89.011719 136.441406 C 98.46875 136.441406 106.515625 138.867188 113.601562 143.863281 L 114.175781 144.234375 C 121.664062 150.730469 130.488281 153.890625 141.101562 153.890625 C 146.519531 153.890625 152.441406 153.085938 159.207031 151.410156 C 162.429688 150.613281 165.742188 149.660156 169.34375 148.492188 C 175.332031 146.558594 181.496094 144.242188 187.449219 142.011719 L 189.527344 141.222656 C 202.132812 136.492188 216.425781 131.132812 229.683594 129.875 C 231.660156 129.691406 233.605469 129.601562 235.46875 129.601562 C 244.9375 129.601562 252.980469 132.027344 260.058594 137.023438 L 260.671875 137.402344 C 268.152344 143.890625 276.960938 147.035156 287.566406 147.035156 C 292.976562 147.035156 298.894531 146.222656 305.671875 144.554688 C 308.871094 143.757812 312.199219 142.804688 315.796875 141.628906 C 318.351562 140.804688 320.9375 139.917969 323.515625 138.992188 C 327.242188 149.417969 329.808594 160.394531 331.035156 171.78125 Z M 331.035156 171.78125 "
            fill-opacity="1" fill-rule="evenodd" />
    </g>
</svg>