<svg xmlns="http://www.w3.org/2000/svg" xmlns:xlink="http://www.w3.org/1999/xlink" width="500" zoomAndPan="magnify" viewBox="0 0 375 374.999991" height="500" preserveAspectRatio="xMidYMid meet" version="1.0"><defs><g/><clipPath id="5a05f80eb9"><path d="M 34.105469 181 L 140.605469 181 L 140.605469 204 L 34.105469 204 Z M 34.105469 181 " clip-rule="nonzero"/></clipPath><clipPath id="c9e58cfbaf"><path d="M 58 128.605469 L 107 128.605469 L 107 141 L 58 141 Z M 58 128.605469 " clip-rule="nonzero"/></clipPath><clipPath id="6fb4d89ca0"><path d="M 34.105469 160 L 140.605469 160 L 140.605469 184 L 34.105469 184 Z M 34.105469 160 " clip-rule="nonzero"/></clipPath></defs><path fill="#3b82f6" d="M 115.730469 226.621094 C 107.492188 231.863281 97.714844 234.902344 87.230469 234.902344 C 80.511719 234.902344 74.085938 233.65625 68.167969 231.382812 C 68.808594 231.457031 69.46875 231.488281 70.152344 231.488281 C 73.066406 231.488281 76.402344 230.84375 80.640625 229.464844 C 82.0625 229.011719 83.445312 228.511719 84.617188 228.082031 C 85.542969 227.742188 86.476562 227.390625 87.40625 227.042969 L 87.972656 226.832031 C 93.570312 224.726562 98.210938 223.085938 102.753906 222.652344 C 103.480469 222.585938 104.191406 222.550781 104.867188 222.550781 C 108.359375 222.550781 111.324219 223.445312 113.9375 225.28125 L 114.144531 225.417969 C 114.65625 225.855469 115.183594 226.257812 115.730469 226.621094 Z M 115.730469 226.621094 " fill-opacity="1" fill-rule="evenodd"/><path fill="#3b82f6" d="M 134.382812 206.289062 C 131.433594 211.953125 127.484375 217.019531 122.78125 221.261719 C 119.613281 221.058594 116.878906 220.0625 114.46875 218.253906 C 111.785156 215.976562 108.644531 214.871094 104.859375 214.871094 C 104.207031 214.871094 103.523438 214.90625 102.828125 214.972656 C 98.378906 215.394531 93.796875 217.015625 88.265625 219.09375 L 87.636719 219.332031 C 86.070312 219.921875 84.457031 220.527344 82.875 221.078125 C 81.480469 221.574219 80.230469 221.976562 79.054688 222.320312 C 75.558594 223.34375 72.722656 223.828125 70.121094 223.828125 C 66.445312 223.828125 63.324219 222.835938 60.585938 220.796875 L 60.5625 220.773438 C 57.882812 218.5 54.738281 217.390625 50.957031 217.390625 C 50.300781 217.390625 49.621094 217.425781 48.921875 217.492188 C 48.613281 217.523438 48.296875 217.558594 47.988281 217.597656 C 44.925781 214.246094 42.289062 210.507812 40.160156 206.457031 L 40.160156 206.453125 C 43.054688 205.507812 46.015625 204.730469 48.847656 204.464844 C 49.578125 204.394531 50.292969 204.359375 50.980469 204.359375 C 54.460938 204.359375 57.421875 205.253906 60.03125 207.089844 L 60.242188 207.226562 C 62.996094 209.621094 66.246094 210.78125 70.152344 210.78125 C 72.144531 210.78125 74.324219 210.484375 76.816406 209.867188 C 78 209.574219 79.222656 209.222656 80.546875 208.792969 C 82.761719 208.078125 85.039062 207.226562 87.238281 206.398438 L 87.976562 206.117188 C 92.617188 204.375 97.875 202.402344 102.753906 201.945312 C 103.480469 201.875 104.199219 201.839844 104.882812 201.839844 C 108.371094 201.839844 111.328125 202.734375 113.933594 204.570312 L 114.160156 204.714844 C 116.917969 207.101562 120.15625 208.257812 124.058594 208.257812 C 126.054688 208.257812 128.230469 207.960938 130.722656 207.34375 C 131.875 207.058594 133.109375 206.703125 134.382812 206.289062 Z M 134.382812 206.289062 " fill-opacity="1" fill-rule="evenodd"/><g clip-path="url(#5a05f80eb9)"><path fill="#3b82f6" d="M 140.347656 183.460938 C 140.191406 188.292969 139.394531 192.96875 138.035156 197.394531 C 136.675781 197.886719 135.320312 198.359375 133.980469 198.777344 C 132.640625 199.195312 131.425781 199.53125 130.277344 199.796875 C 127.96875 200.332031 125.921875 200.589844 124.023438 200.589844 C 120.324219 200.59375 117.1875 199.585938 114.441406 197.519531 L 114.414062 197.5 C 111.742188 195.25 108.617188 194.15625 104.859375 194.15625 C 104.207031 194.15625 103.523438 194.191406 102.832031 194.257812 C 98.050781 194.710938 92.851562 196.660156 88.269531 198.382812 L 87.570312 198.640625 C 85.105469 199.566406 82.550781 200.523438 80.074219 201.296875 C 78.742188 201.714844 77.53125 202.046875 76.375 202.316406 C 74.0625 202.851562 72.019531 203.113281 70.121094 203.113281 C 66.417969 203.113281 63.28125 202.109375 60.566406 200.0625 C 57.882812 197.785156 54.738281 196.679688 50.957031 196.679688 C 50.300781 196.679688 49.621094 196.710938 48.921875 196.777344 C 45.117188 197.136719 41.050781 198.445312 37.238281 199.832031 C 35.851562 196.007812 34.894531 191.972656 34.425781 187.792969 C 34.941406 187.601562 35.453125 187.410156 35.964844 187.21875 C 40.878906 185.40625 44.945312 184.121094 48.84375 183.75 C 49.433594 183.691406 50.039062 183.660156 50.640625 183.648438 L 50.964844 183.648438 C 54.457031 183.648438 57.421875 184.539062 60.03125 186.375 L 60.230469 186.507812 C 60.429688 186.675781 60.640625 186.847656 60.871094 187.03125 L 60.949219 187.09375 C 61.078125 187.191406 61.210938 187.285156 61.332031 187.375 L 61.472656 187.476562 C 61.597656 187.5625 61.71875 187.648438 61.84375 187.726562 L 62.003906 187.828125 C 62.125 187.90625 62.246094 187.980469 62.371094 188.058594 L 62.523438 188.144531 C 62.652344 188.21875 62.777344 188.292969 62.9375 188.378906 C 63.230469 188.53125 63.527344 188.671875 63.824219 188.808594 L 63.945312 188.863281 C 64.042969 188.90625 64.144531 188.945312 64.246094 188.984375 L 64.507812 189.085938 C 64.621094 189.132812 64.734375 189.171875 64.84375 189.210938 L 65.074219 189.292969 C 65.183594 189.332031 65.296875 189.363281 65.40625 189.398438 L 65.566406 189.445312 C 65.566406 189.445312 65.867188 189.53125 65.976562 189.5625 C 65.976562 189.5625 66.472656 189.679688 66.558594 189.699219 L 66.773438 189.742188 C 66.996094 189.785156 67.21875 189.828125 67.449219 189.863281 L 67.679688 189.898438 C 67.765625 189.914062 68.277344 189.972656 68.277344 189.972656 L 68.609375 190.003906 L 68.875 190.023438 L 69.210938 190.039062 C 69.210938 190.039062 69.699219 190.0625 69.8125 190.0625 L 70.308594 190.0625 L 70.703125 190.058594 C 70.902344 190.050781 71.109375 190.042969 71.308594 190.03125 L 71.609375 190.011719 L 72.238281 189.960938 L 72.875 189.890625 L 73.171875 189.851562 L 73.800781 189.765625 L 74.421875 189.664062 C 74.863281 189.585938 75.304688 189.496094 75.730469 189.40625 L 75.785156 189.390625 C 76.003906 189.34375 76.222656 189.296875 76.460938 189.238281 C 76.777344 189.160156 77.097656 189.082031 77.421875 189 L 77.941406 188.855469 C 79.085938 188.542969 80.300781 188.171875 81.550781 187.746094 C 81.746094 187.679688 82.765625 187.324219 82.765625 187.324219 C 84.277344 186.792969 85.820312 186.210938 87.3125 185.65625 L 88.023438 185.386719 C 88.636719 185.15625 89.253906 184.925781 89.867188 184.699219 C 94.78125 182.882812 98.851562 181.601562 102.75 181.230469 C 103.339844 181.175781 103.941406 181.140625 104.542969 181.132812 L 104.867188 181.128906 C 108.363281 181.128906 111.328125 182.023438 113.933594 183.859375 L 114.148438 183.996094 C 114.339844 184.164062 114.542969 184.328125 114.765625 184.5 L 114.855469 184.570312 C 114.980469 184.667969 115.109375 184.761719 115.242188 184.855469 L 115.378906 184.957031 C 115.503906 185.039062 115.625 185.121094 115.746094 185.203125 L 115.90625 185.304688 C 116.027344 185.382812 116.152344 185.460938 116.273438 185.53125 L 116.425781 185.621094 C 116.554688 185.695312 116.683594 185.769531 116.839844 185.851562 C 117.132812 186.007812 117.429688 186.152344 117.730469 186.28125 L 117.847656 186.339844 C 117.964844 186.390625 118.082031 186.4375 118.199219 186.480469 L 118.410156 186.566406 C 118.523438 186.609375 118.632812 186.648438 118.75 186.6875 L 118.980469 186.769531 C 119.089844 186.804688 119.203125 186.84375 119.3125 186.875 L 119.550781 186.945312 C 119.660156 186.976562 119.769531 187.007812 119.882812 187.035156 L 120.128906 187.097656 C 120.128906 187.097656 120.375 187.15625 120.457031 187.175781 L 120.679688 187.21875 C 120.902344 187.265625 121.125 187.304688 121.351562 187.339844 L 121.585938 187.375 L 122.179688 187.449219 C 122.289062 187.460938 122.402344 187.46875 122.515625 187.480469 L 122.777344 187.5 C 122.886719 187.507812 123 187.511719 123.109375 187.519531 L 123.382812 187.53125 L 123.714844 187.539062 L 124.191406 187.542969 L 124.605469 187.535156 C 124.808594 187.53125 125.007812 187.519531 125.210938 187.511719 L 125.507812 187.492188 L 126.136719 187.4375 L 126.777344 187.371094 L 127.070312 187.332031 L 127.699219 187.246094 C 127.84375 187.222656 128.324219 187.140625 128.324219 187.140625 C 128.765625 187.066406 129.207031 186.976562 129.652344 186.878906 L 129.683594 186.871094 C 129.90625 186.824219 130.125 186.773438 130.324219 186.726562 L 130.363281 186.71875 C 130.683594 186.640625 131.003906 186.5625 131.324219 186.476562 L 131.839844 186.339844 C 132.984375 186.023438 134.203125 185.648438 135.453125 185.222656 C 135.648438 185.15625 136.667969 184.804688 136.667969 184.804688 C 137.890625 184.375 139.128906 183.914062 140.347656 183.460938 Z M 140.347656 183.460938 " fill-opacity="1" fill-rule="evenodd"/></g><g clip-path="url(#c9e58cfbaf)"><path fill="#3b82f6" d="M 106.136719 132.074219 C 105.722656 132.042969 105.292969 132.027344 104.863281 132.027344 C 104.210938 132.027344 103.527344 132.0625 102.828125 132.128906 C 100.734375 132.328125 98.394531 132.824219 95.671875 133.65625 C 93.265625 134.386719 90.796875 135.300781 88.265625 136.25 L 87.273438 136.625 C 85.996094 137.101562 84.722656 137.578125 83.453125 138.03125 C 83.140625 138.140625 82.824219 138.253906 82.511719 138.359375 C 80.898438 138.921875 79.46875 139.371094 78.148438 139.738281 C 75.097656 140.574219 72.472656 140.980469 70.125 140.980469 C 66.441406 140.980469 63.320312 139.988281 60.585938 137.949219 L 60.566406 137.929688 C 60.050781 137.492188 59.515625 137.097656 58.964844 136.742188 C 67.152344 131.589844 76.84375 128.609375 87.230469 128.609375 C 93.890625 128.613281 100.261719 129.835938 106.136719 132.074219 Z M 106.136719 132.074219 " fill-opacity="1" fill-rule="evenodd"/></g><path fill="#3b82f6" d="M 134.382812 157.222656 C 134.25 157.269531 134.113281 157.3125 133.980469 157.355469 C 132.640625 157.773438 131.433594 158.109375 130.28125 158.371094 C 127.96875 158.90625 125.921875 159.167969 124.027344 159.167969 C 120.324219 159.167969 117.1875 158.164062 114.445312 156.09375 L 114.421875 156.078125 C 111.746094 153.828125 108.617188 152.738281 104.863281 152.738281 C 104.210938 152.738281 103.527344 152.769531 102.832031 152.835938 C 98.054688 153.289062 92.855469 155.242188 88.269531 156.957031 L 87.574219 157.214844 C 85.105469 158.140625 82.550781 159.101562 80.074219 159.875 C 78.734375 160.292969 77.527344 160.628906 76.375 160.894531 C 74.0625 161.429688 72.019531 161.691406 70.125 161.691406 C 66.421875 161.691406 63.285156 160.6875 60.570312 158.640625 C 57.882812 156.363281 54.738281 155.253906 50.957031 155.253906 C 50.300781 155.253906 49.621094 155.289062 48.921875 155.355469 C 46.011719 155.628906 42.945312 156.464844 39.953125 157.464844 C 42.921875 151.695312 46.917969 146.539062 51.699219 142.238281 C 54.878906 142.351562 57.609375 143.246094 60.03125 144.953125 L 60.242188 145.089844 C 63 147.480469 66.246094 148.648438 70.152344 148.648438 C 72.300781 148.648438 74.679688 148.296875 77.425781 147.578125 C 78.699219 147.25 80.050781 146.835938 81.554688 146.324219 C 83.386719 145.707031 85.261719 145.007812 87.074219 144.324219 L 87.976562 143.988281 C 93.574219 141.882812 98.214844 140.238281 102.753906 139.808594 C 103.480469 139.738281 104.195312 139.703125 104.875 139.703125 C 108.363281 139.703125 111.328125 140.597656 113.933594 142.4375 L 114.160156 142.578125 C 116.910156 144.964844 120.15625 146.121094 124.058594 146.121094 C 124.851562 146.121094 125.667969 146.074219 126.527344 145.980469 C 129.605469 149.359375 132.253906 153.136719 134.382812 157.222656 Z M 134.382812 157.222656 " fill-opacity="1" fill-rule="evenodd"/><g clip-path="url(#6fb4d89ca0)"><path fill="#3b82f6" d="M 140.058594 175.941406 C 139.84375 176.023438 139.625 176.101562 139.414062 176.183594 L 138.574219 176.488281 C 138.027344 176.6875 137.476562 176.890625 136.929688 177.082031 L 136.628906 177.183594 C 136.101562 177.371094 135.578125 177.550781 135.054688 177.722656 L 134.6875 177.839844 C 134.109375 178.027344 133.53125 178.210938 132.957031 178.378906 L 132.269531 178.574219 C 131.4375 178.808594 130.621094 179.011719 129.867188 179.179688 C 129.867188 179.179688 129.441406 179.269531 129.261719 179.308594 C 129.261719 179.308594 128.839844 179.390625 128.667969 179.425781 C 128.667969 179.425781 128.238281 179.5 128.066406 179.527344 L 127.402344 179.628906 C 127.402344 179.628906 126.992188 179.6875 126.808594 179.707031 L 126.855469 180.945312 L 126.761719 179.710938 C 126.5625 179.738281 126.363281 179.757812 126.160156 179.777344 C 126.160156 179.777344 125.742188 179.8125 125.582031 179.824219 L 124.996094 179.859375 L 124.421875 179.875 L 123.898438 179.878906 L 123.273438 179.863281 L 122.707031 179.835938 L 122.144531 179.789062 L 121.898438 179.761719 L 121.585938 179.722656 L 121.277344 179.679688 L 121.03125 179.636719 L 120.722656 179.582031 L 120.480469 179.535156 C 120.378906 179.515625 119.929688 179.410156 119.929688 179.410156 L 119.628906 179.335938 C 119.628906 179.335938 119.1875 179.214844 119.089844 179.183594 L 118.84375 179.105469 L 118.550781 179.011719 C 118.550781 179.011719 118.117188 178.851562 118.019531 178.8125 C 118.019531 178.8125 117.589844 178.636719 117.496094 178.597656 L 116.972656 178.359375 C 116.890625 178.316406 116.453125 178.09375 116.453125 178.09375 L 115.945312 177.808594 L 115.433594 177.5 C 115.355469 177.449219 114.933594 177.171875 114.933594 177.171875 C 114.769531 177.054688 114.605469 176.9375 114.46875 176.832031 C 111.785156 174.554688 108.648438 173.449219 104.863281 173.449219 C 104.210938 173.449219 103.523438 173.480469 102.828125 173.550781 C 100.734375 173.746094 98.394531 174.242188 95.667969 175.074219 L 95.386719 175.164062 C 94.945312 175.300781 94.496094 175.441406 94.050781 175.59375 L 93.550781 175.757812 C 93.132812 175.898438 92.710938 176.046875 92.292969 176.195312 L 91.4375 176.5 L 90.765625 176.738281 C 89.933594 177.046875 89.101562 177.351562 88.265625 177.664062 L 87.699219 177.878906 C 86.96875 178.15625 86.238281 178.429688 85.503906 178.703125 L 84.664062 179.007812 C 84.117188 179.207031 83.570312 179.40625 83.027344 179.597656 L 82.726562 179.703125 C 82.199219 179.890625 81.671875 180.066406 81.152344 180.242188 L 80.78125 180.363281 C 80.203125 180.546875 79.628906 180.730469 79.054688 180.894531 C 79.054688 180.894531 78.539062 181.046875 78.363281 181.09375 C 77.53125 181.328125 76.714844 181.535156 75.949219 181.699219 L 76.03125 182.9375 L 75.914062 181.710938 C 75.730469 181.753906 75.542969 181.789062 75.359375 181.828125 C 75.359375 181.828125 74.9375 181.914062 74.765625 181.941406 C 74.765625 181.941406 74.332031 182.019531 74.164062 182.046875 L 73.457031 182.15625 C 73.273438 182.179688 73.089844 182.203125 72.90625 182.226562 L 72.949219 183.46875 L 72.859375 182.230469 C 72.660156 182.253906 72.460938 182.277344 72.257812 182.296875 C 72.257812 182.296875 71.84375 182.335938 71.679688 182.34375 L 71.09375 182.375 L 70.519531 182.398438 L 70.027344 182.402344 L 69.371094 182.390625 L 68.804688 182.359375 C 68.699219 182.351562 68.238281 182.308594 68.238281 182.308594 C 68.136719 182.296875 68.03125 182.289062 67.929688 182.277344 L 67.371094 182.199219 L 67.121094 182.164062 C 67.023438 182.144531 66.921875 182.125 66.816406 182.105469 L 66.570312 182.058594 L 66.265625 181.992188 L 66.023438 181.9375 C 65.921875 181.910156 65.824219 181.886719 65.722656 181.859375 L 65.480469 181.792969 C 65.382812 181.761719 65.28125 181.734375 65.183594 181.710938 L 64.644531 181.53125 C 64.644531 181.53125 64.210938 181.375 64.113281 181.339844 L 63.585938 181.121094 C 63.511719 181.085938 63.15625 180.921875 63.066406 180.882812 L 62.550781 180.617188 L 62.039062 180.332031 L 61.53125 180.027344 C 61.449219 179.972656 61.363281 179.917969 61.28125 179.859375 L 61.03125 179.695312 C 60.878906 179.585938 60.730469 179.484375 60.585938 179.375 L 60.5625 179.351562 C 57.882812 177.078125 54.738281 175.96875 50.957031 175.96875 C 50.300781 175.96875 49.617188 176.003906 48.917969 176.070312 C 46.828125 176.265625 44.484375 176.765625 41.761719 177.59375 L 41.480469 177.683594 C 41.035156 177.824219 40.589844 177.964844 40.144531 178.113281 L 39.640625 178.28125 C 39.222656 178.421875 38.804688 178.566406 38.382812 178.714844 L 37.515625 179.023438 L 36.859375 179.261719 C 36.027344 179.566406 35.195312 179.875 34.359375 180.1875 L 34.105469 180.285156 C 34.234375 175.457031 35.011719 170.789062 36.347656 166.371094 L 36.347656 166.367188 C 40.390625 164.878906 44.753906 163.425781 48.84375 163.039062 C 49.578125 162.96875 50.292969 162.933594 50.976562 162.933594 C 54.457031 162.933594 57.421875 163.828125 60.03125 165.667969 L 60.242188 165.804688 C 62.996094 168.195312 66.242188 169.355469 70.152344 169.355469 C 72.144531 169.355469 74.324219 169.058594 76.8125 168.441406 C 78 168.148438 79.21875 167.800781 80.546875 167.371094 C 82.75 166.65625 85.019531 165.804688 87.207031 164.984375 L 87.972656 164.695312 C 92.613281 162.953125 97.875 160.980469 102.753906 160.519531 C 103.480469 160.449219 104.199219 160.417969 104.882812 160.417969 C 108.367188 160.417969 111.328125 161.308594 113.933594 163.148438 L 114.160156 163.289062 C 116.910156 165.675781 120.15625 166.832031 124.058594 166.832031 C 126.046875 166.832031 128.226562 166.535156 130.722656 165.921875 C 131.898438 165.628906 133.125 165.277344 134.449219 164.84375 C 135.386719 164.539062 136.339844 164.214844 137.289062 163.875 C 138.660156 167.710938 139.605469 171.75 140.058594 175.941406 Z M 140.058594 175.941406 " fill-opacity="1" fill-rule="evenodd"/></g><g fill="#3b82f6" fill-opacity="1"><g transform="translate(150.899234, 195.977214)"><g><path d="M 3.859375 0 L 0.484375 -31.625 L 6.65625 -31.625 L 8.4375 -11.671875 L 10.203125 -31.625 L 16.09375 -31.625 L 17.78125 -11.671875 L 19.46875 -31.625 L 25.734375 -31.625 L 22.265625 0 L 14.6875 0 L 13.109375 -15.234375 L 11.59375 0 Z M 3.859375 0 "/></g></g></g><g fill="#3b82f6" fill-opacity="1"><g transform="translate(177.107003, 195.977214)"><g><path d="M 8.828125 0.296875 C 6.054688 0.296875 4.066406 -0.460938 2.859375 -1.984375 C 1.660156 -3.503906 1.0625 -5.773438 1.0625 -8.796875 L 1.0625 -19.625 C 1.0625 -22.101562 1.773438 -23.988281 3.203125 -25.28125 C 4.628906 -26.582031 6.617188 -27.234375 9.171875 -27.234375 C 14.347656 -27.234375 16.9375 -24.695312 16.9375 -19.625 L 16.9375 -17.671875 C 16.9375 -15.703125 16.910156 -14.109375 16.859375 -12.890625 L 7.515625 -12.890625 L 7.515625 -7.65625 C 7.515625 -6.726562 7.609375 -6 7.796875 -5.46875 C 7.992188 -4.9375 8.414062 -4.671875 9.0625 -4.671875 C 9.550781 -4.671875 9.898438 -4.816406 10.109375 -5.109375 C 10.316406 -5.410156 10.4375 -5.75 10.46875 -6.125 C 10.507812 -6.507812 10.53125 -7.066406 10.53125 -7.796875 L 10.53125 -10.421875 L 16.9375 -10.421875 L 16.9375 -8.875 C 16.9375 -5.726562 16.328125 -3.410156 15.109375 -1.921875 C 13.898438 -0.441406 11.804688 0.296875 8.828125 0.296875 Z M 10.53125 -16.09375 L 10.53125 -19.546875 C 10.53125 -21.484375 10.050781 -22.453125 9.09375 -22.453125 C 8.007812 -22.453125 7.46875 -21.484375 7.46875 -19.546875 L 7.46875 -16.09375 Z M 10.53125 -16.09375 "/></g></g></g><g fill="#3b82f6" fill-opacity="1"><g transform="translate(195.069637, 195.977214)"><g><path d="M 6.1875 0.296875 C 4.101562 0.296875 2.671875 -0.394531 1.890625 -1.78125 C 1.117188 -3.164062 0.734375 -5.148438 0.734375 -7.734375 C 0.734375 -9.835938 1.007812 -11.453125 1.5625 -12.578125 C 2.113281 -13.710938 2.878906 -14.539062 3.859375 -15.0625 C 4.847656 -15.59375 6.347656 -16.179688 8.359375 -16.828125 L 10.125 -17.40625 L 10.125 -20.171875 C 10.125 -20.878906 9.984375 -21.421875 9.703125 -21.796875 C 9.421875 -22.179688 9.082031 -22.375 8.6875 -22.375 C 8.34375 -22.375 8.039062 -22.210938 7.78125 -21.890625 C 7.53125 -21.578125 7.40625 -21.148438 7.40625 -20.609375 L 7.40625 -19 L 1.140625 -19 L 1.140625 -19.875 C 1.140625 -22.53125 1.757812 -24.421875 3 -25.546875 C 4.238281 -26.671875 6.257812 -27.234375 9.0625 -27.234375 C 11.289062 -27.234375 13.101562 -26.648438 14.5 -25.484375 C 15.90625 -24.328125 16.609375 -22.679688 16.609375 -20.546875 L 16.609375 0 L 10.203125 0 L 10.203125 -3.203125 C 9.878906 -2.097656 9.367188 -1.238281 8.671875 -0.625 C 7.972656 -0.0078125 7.144531 0.296875 6.1875 0.296875 Z M 8.71875 -4.71875 C 9.207031 -4.71875 9.554688 -4.914062 9.765625 -5.3125 C 9.984375 -5.71875 10.09375 -6.21875 10.09375 -6.8125 L 10.09375 -14.3125 C 9.132812 -13.945312 8.425781 -13.484375 7.96875 -12.921875 C 7.507812 -12.359375 7.28125 -11.570312 7.28125 -10.5625 L 7.28125 -7.109375 C 7.28125 -5.515625 7.757812 -4.71875 8.71875 -4.71875 Z M 8.71875 -4.71875 "/></g></g></g><g fill="#3b82f6" fill-opacity="1"><g transform="translate(212.848227, 195.977214)"><g><path d="M 6.84375 0.296875 C 5.15625 0.296875 3.988281 -0.0546875 3.34375 -0.765625 C 2.707031 -1.484375 2.390625 -2.628906 2.390625 -4.203125 L 2.390625 -21.015625 L 0.59375 -21.015625 L 0.59375 -25.921875 L 2.390625 -25.921875 L 2.390625 -31.625 L 8.65625 -31.625 L 8.65625 -25.921875 L 10.484375 -25.921875 L 10.484375 -21.015625 L 8.65625 -21.015625 L 8.65625 -5.890625 C 8.65625 -5.421875 8.691406 -5.078125 8.765625 -4.859375 C 8.835938 -4.640625 9.03125 -4.53125 9.34375 -4.53125 C 9.59375 -4.53125 9.828125 -4.539062 10.046875 -4.5625 C 10.265625 -4.59375 10.410156 -4.609375 10.484375 -4.609375 L 10.484375 -0.1875 C 10.117188 -0.0820312 9.585938 0.0195312 8.890625 0.125 C 8.191406 0.238281 7.507812 0.296875 6.84375 0.296875 Z M 6.84375 0.296875 "/></g></g></g><g fill="#3b82f6" fill-opacity="1"><g transform="translate(224.074869, 195.977214)"><g><path d="M 1.28125 -31.8125 L 7.921875 -31.8125 L 7.921875 -24.296875 C 8.609375 -26.253906 9.921875 -27.234375 11.859375 -27.234375 C 13.671875 -27.234375 15.039062 -26.65625 15.96875 -25.5 C 16.90625 -24.351562 17.375 -22.773438 17.375 -20.765625 L 17.375 0 L 10.9375 0 L 10.9375 -20.359375 C 10.9375 -20.941406 10.800781 -21.414062 10.53125 -21.78125 C 10.257812 -22.15625 9.863281 -22.34375 9.34375 -22.34375 C 8.90625 -22.34375 8.554688 -22.148438 8.296875 -21.765625 C 8.046875 -21.390625 7.921875 -20.929688 7.921875 -20.390625 L 7.921875 0 L 1.28125 0 Z M 1.28125 -31.8125 "/></g></g></g><g fill="#3b82f6" fill-opacity="1"><g transform="translate(242.663243, 195.977214)"><g><path d="M 8.828125 0.296875 C 6.054688 0.296875 4.066406 -0.460938 2.859375 -1.984375 C 1.660156 -3.503906 1.0625 -5.773438 1.0625 -8.796875 L 1.0625 -19.625 C 1.0625 -22.101562 1.773438 -23.988281 3.203125 -25.28125 C 4.628906 -26.582031 6.617188 -27.234375 9.171875 -27.234375 C 14.347656 -27.234375 16.9375 -24.695312 16.9375 -19.625 L 16.9375 -17.671875 C 16.9375 -15.703125 16.910156 -14.109375 16.859375 -12.890625 L 7.515625 -12.890625 L 7.515625 -7.65625 C 7.515625 -6.726562 7.609375 -6 7.796875 -5.46875 C 7.992188 -4.9375 8.414062 -4.671875 9.0625 -4.671875 C 9.550781 -4.671875 9.898438 -4.816406 10.109375 -5.109375 C 10.316406 -5.410156 10.4375 -5.75 10.46875 -6.125 C 10.507812 -6.507812 10.53125 -7.066406 10.53125 -7.796875 L 10.53125 -10.421875 L 16.9375 -10.421875 L 16.9375 -8.875 C 16.9375 -5.726562 16.328125 -3.410156 15.109375 -1.921875 C 13.898438 -0.441406 11.804688 0.296875 8.828125 0.296875 Z M 10.53125 -16.09375 L 10.53125 -19.546875 C 10.53125 -21.484375 10.050781 -22.453125 9.09375 -22.453125 C 8.007812 -22.453125 7.46875 -21.484375 7.46875 -19.546875 L 7.46875 -16.09375 Z M 10.53125 -16.09375 "/></g></g></g><g fill="#3b82f6" fill-opacity="1"><g transform="translate(260.625876, 195.977214)"><g><path d="M 1.28125 -26.953125 L 7.734375 -26.953125 L 7.734375 -23.96875 C 8.046875 -25.019531 8.601562 -25.832031 9.40625 -26.40625 C 10.207031 -26.988281 11.195312 -27.28125 12.375 -27.28125 L 12.375 -21.90625 C 11.457031 -21.90625 10.453125 -21.773438 9.359375 -21.515625 C 8.273438 -21.253906 7.734375 -20.953125 7.734375 -20.609375 L 7.734375 0 L 1.28125 0 Z M 1.28125 -26.953125 "/></g></g></g><g fill="#3b82f6" fill-opacity="1"><g transform="translate(273.288054, 195.977214)"><g><path d="M 3.859375 0 L 0.484375 -31.625 L 6.65625 -31.625 L 8.4375 -11.671875 L 10.203125 -31.625 L 16.09375 -31.625 L 17.78125 -11.671875 L 19.46875 -31.625 L 25.734375 -31.625 L 22.265625 0 L 14.6875 0 L 13.109375 -15.234375 L 11.59375 0 Z M 3.859375 0 "/></g></g></g><g fill="#3b82f6" fill-opacity="1"><g transform="translate(299.495823, 195.977214)"><g><path d="M 1.25 -28.75 L 1.25 -33.234375 L 7.6875 -33.234375 L 7.6875 -28.75 Z M 1.25 0 L 1.25 -26.953125 L 7.6875 -26.953125 L 7.6875 0 Z M 1.25 0 "/></g></g></g><g fill="#3b82f6" fill-opacity="1"><g transform="translate(308.44033, 195.977214)"><g><path d="M 8.6875 0.296875 C 3.363281 0.296875 0.703125 -2.398438 0.703125 -7.796875 L 0.734375 -9.9375 L 7.171875 -9.9375 L 7.21875 -6.78125 C 7.21875 -6.132812 7.335938 -5.644531 7.578125 -5.3125 C 7.828125 -4.988281 8.234375 -4.828125 8.796875 -4.828125 C 9.660156 -4.828125 10.09375 -5.523438 10.09375 -6.921875 C 10.09375 -7.953125 9.890625 -8.757812 9.484375 -9.34375 C 9.078125 -9.9375 8.429688 -10.566406 7.546875 -11.234375 L 4.125 -13.875 C 2.945312 -14.78125 2.097656 -15.71875 1.578125 -16.6875 C 1.066406 -17.664062 0.8125 -19.035156 0.8125 -20.796875 C 0.8125 -22.171875 1.171875 -23.34375 1.890625 -24.3125 C 2.617188 -25.28125 3.582031 -26.007812 4.78125 -26.5 C 5.988281 -26.988281 7.328125 -27.234375 8.796875 -27.234375 C 14.023438 -27.234375 16.640625 -24.632812 16.640625 -19.4375 L 16.640625 -18.921875 L 9.96875 -18.921875 L 9.96875 -19.953125 C 9.96875 -20.585938 9.863281 -21.128906 9.65625 -21.578125 C 9.445312 -22.035156 9.097656 -22.265625 8.609375 -22.265625 C 8.171875 -22.265625 7.832031 -22.132812 7.59375 -21.875 C 7.363281 -21.625 7.25 -21.273438 7.25 -20.828125 C 7.25 -19.847656 7.628906 -19.085938 8.390625 -18.546875 L 12.375 -15.640625 C 13.789062 -14.585938 14.878906 -13.441406 15.640625 -12.203125 C 16.398438 -10.960938 16.78125 -9.398438 16.78125 -7.515625 C 16.78125 -5.003906 16.066406 -3.070312 14.640625 -1.71875 C 13.222656 -0.375 11.238281 0.296875 8.6875 0.296875 Z M 8.6875 0.296875 "/></g></g></g><g fill="#3b82f6" fill-opacity="1"><g transform="translate(325.924452, 195.977214)"><g><path d="M 8.828125 0.296875 C 6.054688 0.296875 4.066406 -0.460938 2.859375 -1.984375 C 1.660156 -3.503906 1.0625 -5.773438 1.0625 -8.796875 L 1.0625 -19.625 C 1.0625 -22.101562 1.773438 -23.988281 3.203125 -25.28125 C 4.628906 -26.582031 6.617188 -27.234375 9.171875 -27.234375 C 14.347656 -27.234375 16.9375 -24.695312 16.9375 -19.625 L 16.9375 -17.671875 C 16.9375 -15.703125 16.910156 -14.109375 16.859375 -12.890625 L 7.515625 -12.890625 L 7.515625 -7.65625 C 7.515625 -6.726562 7.609375 -6 7.796875 -5.46875 C 7.992188 -4.9375 8.414062 -4.671875 9.0625 -4.671875 C 9.550781 -4.671875 9.898438 -4.816406 10.109375 -5.109375 C 10.316406 -5.410156 10.4375 -5.75 10.46875 -6.125 C 10.507812 -6.507812 10.53125 -7.066406 10.53125 -7.796875 L 10.53125 -10.421875 L 16.9375 -10.421875 L 16.9375 -8.875 C 16.9375 -5.726562 16.328125 -3.410156 15.109375 -1.921875 C 13.898438 -0.441406 11.804688 0.296875 8.828125 0.296875 Z M 10.53125 -16.09375 L 10.53125 -19.546875 C 10.53125 -21.484375 10.050781 -22.453125 9.09375 -22.453125 C 8.007812 -22.453125 7.46875 -21.484375 7.46875 -19.546875 L 7.46875 -16.09375 Z M 10.53125 -16.09375 "/></g></g></g></svg>